<?xml version="1.0" encoding="UTF-8" standalone="no"?>
<svg
   xmlns:dc="http://purl.org/dc/elements/1.1/"
   xmlns:cc="http://creativecommons.org/ns#"
   xmlns:rdf="http://www.w3.org/1999/02/22-rdf-syntax-ns#"
   xmlns:svg="http://www.w3.org/2000/svg"
   xmlns="http://www.w3.org/2000/svg"
   viewBox="0 0 8531.1328 6105.4131"
   height="6105.4131"
   width="8531.1328"
   xml:space="preserve"
   id="svg2"
   version="1.1"><metadata
     id="metadata8"><rdf:RDF><cc:Work
         rdf:about=""><dc:format>image/svg+xml</dc:format><dc:type
           rdf:resource="http://purl.org/dc/dcmitype/StillImage" /></cc:Work></rdf:RDF></metadata><defs
     id="defs6"><clipPath
       id="clipPath200"
       clipPathUnits="userSpaceOnUse"><path
         id="path198"
         d="m 24552.6,27312.2 -18920.41,1.7 -1425.82,10334.6 H 26302 Z" /></clipPath><linearGradient
       id="linearGradient210"
       spreadMethod="pad"
       gradientTransform="matrix(22095.6,0,0,-22095.6,4206.37,32480.3)"
       gradientUnits="userSpaceOnUse"
       y2="0"
       x2="1"
       y1="0"
       x1="0"><stop
         id="stop204"
         offset="0"
         style="stop-opacity:1;stop-color:#231f20" /><stop
         id="stop206"
         offset="0.357143"
         style="stop-opacity:1;stop-color:#7f7d7e" /><stop
         id="stop208"
         offset="1"
         style="stop-opacity:1;stop-color:#231f20" /></linearGradient></defs><g
     transform="matrix(1.3333333,0,0,-1.3333333,0,6105.4133)"
     id="g10"><g
       transform="scale(0.1)"
       id="g12"><path
         id="path14"
         style="fill:#656263;fill-opacity:1;fill-rule:nonzero;stroke:none"
         d="m 14587.2,2134.8 -571.4,5951.5 -7159.07,1328.3 -726.31,-7224 c -1.05,-8.9 -1.93,-17.9 -2.69,-26.8 l -2.87,-29 h 0.99 c -0.62,-13 -0.99,-26 -0.99,-39 0,-1012.3 1894.35,-1832.898 4231.14,-1832.898 2336.9,0 4231.2,820.598 4231.2,1832.898 0,13 -0.4,26 -1,39 h 1" /><path
         id="path16"
         style="fill:none;stroke:#231f20;stroke-width:525.79400635;stroke-linecap:butt;stroke-linejoin:miter;stroke-miterlimit:4;stroke-dasharray:none;stroke-opacity:1"
         d="m 14587.2,2134.8 -571.4,5951.5 -7159.07,1328.3 -726.31,-7224 c -1.05,-8.9 -1.93,-17.9 -2.69,-26.8 l -2.87,-29 h 0.99 c -0.62,-13 -0.99,-26 -0.99,-39 0,-1012.3 1894.35,-1832.898 4231.14,-1832.898 2336.9,0 4231.2,820.598 4231.2,1832.898 0,13 -0.4,26 -1,39 z" /><g
         transform="scale(1.49206)"
         id="g18"><path
           id="path20"
           style="fill:#656263;fill-opacity:1;fill-rule:nonzero;stroke:none"
           d="m 10628.4,1430.78 383,3988.79 4798.1,890.25 486.7,-4841.64 c 0.8,-5.97 1.4,-12 1.9,-17.97 l 1.9,-19.43 h -0.7 c 0.4,-8.71 0.7,-17.43 0.7,-26.14 0,-678.46 -1269.7,-1228.439 -2835.8,-1228.439 -1566.2,0 -2835.8,549.979 -2835.8,1228.439 0,8.71 0.2,17.43 0.6,26.14 h -0.6" /></g><g
         transform="scale(1.49206)"
         id="g22"><path
           id="path24"
           style="fill:none;stroke:#231f20;stroke-width:352.39599609;stroke-linecap:butt;stroke-linejoin:miter;stroke-miterlimit:4;stroke-dasharray:none;stroke-opacity:1"
           d="m 10628.4,1430.78 383,3988.79 4798.1,890.25 486.7,-4841.64 c 0.8,-5.97 1.4,-12 1.9,-17.97 l 1.9,-19.43 h -0.7 c 0.4,-8.71 0.7,-17.43 0.7,-26.14 0,-678.46 -1269.7,-1228.439 -2835.8,-1228.439 -1566.2,0 -2835.8,549.979 -2835.8,1228.439 0,8.71 0.2,17.43 0.6,26.14 z" /></g><g
         transform="scale(1.6745)"
         id="g26"><path
           id="path28"
           style="fill:#656263;fill-opacity:1;fill-rule:nonzero;stroke:none"
           d="m 14915.6,9890.76 c 0,-3539.68 -2600.5,-6409.19 -5808.36,-6409.19 -3207.85,0 -5808.34,2869.51 -5808.34,6409.19 0,3539.74 2600.49,6409.24 5808.34,6409.24 3207.86,0 5808.36,-2869.5 5808.36,-6409.24" /></g><g
         transform="scale(1.6745)"
         id="g30"><path
           id="path32"
           style="fill:none;stroke:#231f20;stroke-width:278.06600952;stroke-linecap:butt;stroke-linejoin:miter;stroke-miterlimit:4;stroke-dasharray:none;stroke-opacity:1"
           d="m 14915.6,9890.76 c 0,-3539.68 -2600.5,-6409.19 -5808.36,-6409.19 -3207.85,0 -5808.34,2869.51 -5808.34,6409.19 0,3539.74 2600.49,6409.24 5808.34,6409.24 3207.86,0 5808.36,-2869.5 5808.36,-6409.24 z" /></g><g
         transform="scale(1.36777)"
         id="g34"><path
           id="path36"
           style="fill:#bdbcbc;fill-opacity:1;fill-rule:nonzero;stroke:none"
           d="m 11730.5,10255.8 h -991.7 V 16300 h 991.7 v -6044.2" /></g><g
         transform="scale(1.33454)"
         id="g38"><path
           id="path40"
           style="fill:none;stroke:#100f0d;stroke-width:374.66101074;stroke-linecap:butt;stroke-linejoin:miter;stroke-miterlimit:4;stroke-dasharray:none;stroke-opacity:1"
           d="m 11199.7,16300 h 629.4" /></g><g
         transform="scale(1.29448)"
         id="g42"><path
           id="path44"
           style="fill:none;stroke:#100f0d;stroke-width:386.25601196;stroke-linecap:butt;stroke-linejoin:miter;stroke-miterlimit:4;stroke-dasharray:none;stroke-opacity:1"
           d="m 11546.3,16300 h 648.9" /></g><g
         transform="scale(1.25441)"
         id="g46"><path
           id="path48"
           style="fill:none;stroke:#100f0d;stroke-width:398.59298706;stroke-linecap:butt;stroke-linejoin:miter;stroke-miterlimit:4;stroke-dasharray:none;stroke-opacity:1"
           d="m 11915.1,16300 h 669.6" /></g><g
         transform="scale(1.21434)"
         id="g50"><path
           id="path52"
           style="fill:none;stroke:#100f0d;stroke-width:411.74499512;stroke-linecap:butt;stroke-linejoin:miter;stroke-miterlimit:4;stroke-dasharray:none;stroke-opacity:1"
           d="m 12308.2,16300 h 691.7" /></g><g
         transform="scale(1.17428)"
         id="g54"><path
           id="path56"
           style="fill:none;stroke:#100f0d;stroke-width:425.79199219;stroke-linecap:butt;stroke-linejoin:miter;stroke-miterlimit:4;stroke-dasharray:none;stroke-opacity:1"
           d="m 12728.1,16300 h 715.3" /></g><g
         transform="scale(1.13421)"
         id="g58"><path
           id="path60"
           style="fill:none;stroke:#100f0d;stroke-width:440.83401489;stroke-linecap:butt;stroke-linejoin:miter;stroke-miterlimit:4;stroke-dasharray:none;stroke-opacity:1"
           d="m 13177.8,16300 h 740.6" /></g><g
         transform="scale(1.09415)"
         id="g62"><path
           id="path64"
           style="fill:none;stroke:#100f0d;stroke-width:456.97698975;stroke-linecap:butt;stroke-linejoin:miter;stroke-miterlimit:4;stroke-dasharray:none;stroke-opacity:1"
           d="M 13660.3,16300 H 14428" /></g><g
         transform="scale(1.05409)"
         id="g66"><path
           id="path68"
           style="fill:none;stroke:#100f0d;stroke-width:474.34500122;stroke-linecap:butt;stroke-linejoin:miter;stroke-miterlimit:4;stroke-dasharray:none;stroke-opacity:1"
           d="m 14179.5,16300 h 796.9" /></g><g
         transform="scale(1.01402)"
         id="g70"><path
           id="path72"
           style="fill:none;stroke:#100f0d;stroke-width:493.0880127;stroke-linecap:butt;stroke-linejoin:miter;stroke-miterlimit:4;stroke-dasharray:none;stroke-opacity:1"
           d="m 14739.8,16300 h 828.4" /></g><path
         id="path74"
         style="fill:none;stroke:#100f0d;stroke-width:500;stroke-linecap:butt;stroke-linejoin:miter;stroke-miterlimit:4;stroke-dasharray:none;stroke-opacity:1"
         d="m 14946.4,15875.4 h 840" /><path
         id="path76"
         style="fill:none;stroke:#100f0d;stroke-width:500;stroke-linecap:butt;stroke-linejoin:miter;stroke-miterlimit:4;stroke-dasharray:none;stroke-opacity:1"
         d="m 14946.4,15222.4 h 840" /><path
         id="path78"
         style="fill:none;stroke:#100f0d;stroke-width:500;stroke-linecap:butt;stroke-linejoin:miter;stroke-miterlimit:4;stroke-dasharray:none;stroke-opacity:1"
         d="m 14946.4,14569.3 h 840" /><path
         id="path80"
         style="fill:#bdbcbc;fill-opacity:1;fill-rule:nonzero;stroke:none"
         d="m 10661,10232.5 -959.05,959.1 2922.85,2922.8 959,-959.1 -2922.8,-2922.8" /><path
         id="path82"
         style="fill:none;stroke:#100f0d;stroke-width:500;stroke-linecap:butt;stroke-linejoin:miter;stroke-miterlimit:4;stroke-dasharray:none;stroke-opacity:1"
         d="m 10257,11374.4 586.8,-586.9" /><path
         id="path84"
         style="fill:none;stroke:#100f0d;stroke-width:500;stroke-linecap:butt;stroke-linejoin:miter;stroke-miterlimit:4;stroke-dasharray:none;stroke-opacity:1"
         d="m 10694,11811.4 586.8,-586.9" /><path
         id="path86"
         style="fill:none;stroke:#100f0d;stroke-width:500;stroke-linecap:butt;stroke-linejoin:miter;stroke-miterlimit:4;stroke-dasharray:none;stroke-opacity:1"
         d="m 11131,12248.4 586.8,-586.9" /><path
         id="path88"
         style="fill:none;stroke:#100f0d;stroke-width:500;stroke-linecap:butt;stroke-linejoin:miter;stroke-miterlimit:4;stroke-dasharray:none;stroke-opacity:1"
         d="m 11568,12685.4 586.8,-586.9" /><path
         id="path90"
         style="fill:none;stroke:#100f0d;stroke-width:500;stroke-linecap:butt;stroke-linejoin:miter;stroke-miterlimit:4;stroke-dasharray:none;stroke-opacity:1"
         d="m 12005,13122.4 586.8,-586.9" /><path
         id="path92"
         style="fill:none;stroke:#100f0d;stroke-width:500;stroke-linecap:butt;stroke-linejoin:miter;stroke-miterlimit:4;stroke-dasharray:none;stroke-opacity:1"
         d="m 12441.9,13559.4 586.9,-586.9" /><g
         transform="scale(1.29024)"
         id="g94"><path
           id="path96"
           style="fill:#bdbcbc;fill-opacity:1;fill-rule:nonzero;stroke:none"
           d="m 16300,8674.05 -743.4,-743.35 -2265.3,2265.3 743.3,743.4 2265.4,-2265.35" /></g><g
         transform="scale(1.25618)"
         id="g98"><path
           id="path100"
           style="fill:none;stroke:#100f0d;stroke-width:398.03100586;stroke-linecap:butt;stroke-linejoin:miter;stroke-miterlimit:4;stroke-dasharray:none;stroke-opacity:1"
           d="m 15832.9,8587.52 467.1,467.2" /></g><g
         transform="scale(1.22937)"
         id="g102"><path
           id="path104"
           style="fill:none;stroke:#100f0d;stroke-width:406.71099854;stroke-linecap:butt;stroke-linejoin:miter;stroke-miterlimit:4;stroke-dasharray:none;stroke-opacity:1"
           d="m 15822.7,9130.25 477.3,477.4" /></g><g
         transform="scale(1.20256)"
         id="g106"><path
           id="path108"
           style="fill:none;stroke:#100f0d;stroke-width:415.77801514;stroke-linecap:butt;stroke-linejoin:miter;stroke-miterlimit:4;stroke-dasharray:none;stroke-opacity:1"
           d="m 15812,9697.2 488,488" /></g><g
         transform="scale(1.17575)"
         id="g110"><path
           id="path112"
           style="fill:none;stroke:#100f0d;stroke-width:425.25900269;stroke-linecap:butt;stroke-linejoin:miter;stroke-miterlimit:4;stroke-dasharray:none;stroke-opacity:1"
           d="m 15800.9,10290 499.1,499.2" /></g><g
         transform="scale(1.14894)"
         id="g114"><path
           id="path116"
           style="fill:none;stroke:#100f0d;stroke-width:435.18200684;stroke-linecap:butt;stroke-linejoin:miter;stroke-miterlimit:4;stroke-dasharray:none;stroke-opacity:1"
           d="m 15789.3,10910.4 510.7,510.9" /></g><g
         transform="scale(1.12214)"
         id="g118"><path
           id="path120"
           style="fill:none;stroke:#100f0d;stroke-width:445.57699585;stroke-linecap:butt;stroke-linejoin:miter;stroke-miterlimit:4;stroke-dasharray:none;stroke-opacity:1"
           d="m 15777,11560.5 523,523" /></g><g
         transform="scale(1.7587)"
         id="g122"><path
           id="path124"
           style="fill:#656263;fill-opacity:1;fill-rule:nonzero;stroke:none"
           d="m 12576.2,14440.7 c 1043.5,208.9 1823.8,-996.4 2199.3,-2143.9 408.4,-1248.1 1219.5,-3817.41 1375.2,-5002.54 149.3,-1136.02 -747.2,-2146.71 -1888.7,-2245.13 -686.2,-59.13 -1753.6,65.56 -1743.3,705.18 2,127.59 281.8,121.11 390.4,254.22 370.8,454.54 217,809.81 -64.4,1087.91 -192.8,190.48 -540.6,-141.41 -835.4,48.95 -338.1,218.29 790.8,659.41 667.2,1228.81 -287.1,944.34 -755.1,1995.1 -871.9,3303.1 -115.4,1291.6 -182.5,2572.3 771.6,2763.4" /></g><g
         transform="scale(1.74261)"
         id="g126"><path
           id="path128"
           style="fill:#bdbcbc;fill-opacity:1;fill-rule:nonzero;stroke:none"
           d="m 12793.7,8450.73 c 0,0 -77.2,-403.76 -633.9,-960.52 0,0 -265.2,-209.51 325.5,-325.49 590.6,-115.97 735.2,113.05 735.2,-762.19 0,-875.18 -656.9,-83.66 -572.8,-723.74 84.1,-640.13 1681.6,-504.99 2165,-504.99 483.3,0 1487.3,743.77 1487.3,2258.74 0,1514.97 -3123.6,1400.89 -3506.3,1018.19" /></g><g
         transform="scale(1.74261)"
         id="g130"><path
           id="path132"
           style="fill:none;stroke:#100f0d;stroke-width:5.73853016;stroke-linecap:butt;stroke-linejoin:miter;stroke-miterlimit:4;stroke-dasharray:none;stroke-opacity:1"
           d="m 12793.7,8450.73 c 0,0 -77.2,-403.76 -633.9,-960.52 0,0 -265.2,-209.51 325.5,-325.49 590.6,-115.97 735.2,113.05 735.2,-762.19 0,-875.18 -656.9,-83.66 -572.8,-723.74 84.1,-640.13 1681.6,-504.99 2165,-504.99 483.3,0 1487.3,743.77 1487.3,2258.74 0,1514.97 -3123.6,1400.89 -3506.3,1018.19 z" /></g><g
         transform="scale(1.75872)"
         id="g134"><path
           id="path136"
           style="fill:none;stroke:#231f20;stroke-width:298.96398926;stroke-linecap:butt;stroke-linejoin:miter;stroke-miterlimit:4;stroke-dasharray:none;stroke-opacity:1"
           d="m 12576.3,14439.7 c 1043.4,208.9 1823.7,-996.4 2199.2,-2143.8 408.5,-1248.1 1219.5,-3817.39 1375.2,-5002.52 149.3,-1136 -747.2,-2146.68 -1888.7,-2245.1 -686.2,-59.13 -1753.5,65.5 -1743.3,705.17 2.1,127.6 281.8,121.12 390.4,254.22 370.8,454.54 217,809.8 -64.4,1087.9 -192.8,190.48 -540.5,-141.41 -835.3,48.95 -338.1,218.29 790.8,659.4 667.1,1228.8 -287.1,944.32 -755,1994.98 -871.9,3303.08 -115.3,1291.6 -182.5,2572.3 771.7,2763.3 z" /></g><g
         transform="scale(1.72786)"
         id="g138"><path
           id="path140"
           style="fill:none;stroke:#100f0d;stroke-width:289.37399292;stroke-linecap:butt;stroke-linejoin:miter;stroke-miterlimit:4;stroke-dasharray:none;stroke-opacity:1"
           d="m 12902.9,8522.83 c 0,0 1922.7,781.26 3397.1,-349.39" /></g><g
         transform="scale(1.58995)"
         id="g142"><path
           id="path144"
           style="fill:none;stroke:#100f0d;stroke-width:314.4750061;stroke-linecap:butt;stroke-linejoin:miter;stroke-miterlimit:4;stroke-dasharray:none;stroke-opacity:1"
           d="m 13847.5,6364.16 c 0,0 1122.6,8.05 2452.5,-672.41" /></g><g
         transform="scale(1.68391)"
         id="g146"><path
           id="path148"
           style="fill:none;stroke:#100f0d;stroke-width:296.92700195;stroke-linecap:butt;stroke-linejoin:miter;stroke-miterlimit:4;stroke-dasharray:none;stroke-opacity:1"
           d="m 13715.4,6649.63 c 0,0 1328.9,-64.79 2584.6,-707.22" /></g><g
         transform="scale(1.72665)"
         id="g150"><path
           id="path152"
           style="fill:none;stroke:#100f0d;stroke-width:289.57800293;stroke-linecap:butt;stroke-linejoin:miter;stroke-miterlimit:4;stroke-dasharray:none;stroke-opacity:1"
           d="m 13175.7,7127.27 c 0,0 1899.7,43.09 3124.3,-583.5" /></g><g
         transform="scale(1.60868)"
         id="g154"><path
           id="path156"
           style="fill:none;stroke:#100f0d;stroke-width:310.81399536;stroke-linecap:butt;stroke-linejoin:miter;stroke-miterlimit:4;stroke-dasharray:none;stroke-opacity:1"
           d="m 15331.5,9417.59 c 0,0 968.5,-1787.8 -943.2,-3699.49" /></g><g
         transform="scale(1.75209)"
         id="g158"><path
           id="path160"
           style="fill:none;stroke:#100f0d;stroke-width:285.37298584;stroke-linecap:butt;stroke-linejoin:miter;stroke-miterlimit:4;stroke-dasharray:none;stroke-opacity:1"
           d="m 15410.8,8452.36 c 0,0 889.2,-1641.47 -866,-3396.69" /></g><g
         transform="scale(1.58063)"
         id="g162"><path
           id="path164"
           style="fill:#656263;fill-opacity:1;fill-rule:nonzero;stroke:none"
           d="M 5303.25,16067.6 C 4142.28,16300 3274.1,14958.9 2856.27,13682.2 2401.78,12293.5 1499.3,9434.68 1326.08,8116.03 1160,6852.03 2157.49,5727.48 3427.63,5617.97 c 763.48,-65.8 1951.02,72.94 1939.68,784.62 -2.27,141.97 -313.57,134.76 -434.41,282.86 -412.56,505.75 -241.4,901.04 71.68,1210.47 214.48,211.94 601.4,-157.34 929.47,54.48 376.17,242.87 -879.92,733.69 -742.3,1367.24 319.43,1050.76 840.1,2219.86 970.09,3675.26 128.35,1437.1 203.04,2862.1 -858.59,3074.7" /></g><path
         id="path166"
         style="fill:#bdbcbc;fill-opacity:1;fill-rule:nonzero;stroke:none"
         d="m 8205.9,14726.3 c 0,0 134.49,-703.6 1104.7,-1673.8 0,0 461.92,-365.1 -567.25,-567.2 -1029.17,-202.1 -1281.15,197 -1281.15,-1328.2 0,-1525.1 1144.52,-145.8 998.04,-1261.2 -146.47,-1115.5 -2930.42,-880 -3772.65,-880 -842.24,0 -2591.87,1296.1 -2591.87,3936.1 0,2640 5443.28,2441.2 6110.18,1774.3" /><path
         id="path168"
         style="fill:none;stroke:#100f0d;stroke-width:10;stroke-linecap:butt;stroke-linejoin:miter;stroke-miterlimit:4;stroke-dasharray:none;stroke-opacity:1"
         d="m 8205.9,14726.3 c 0,0 134.49,-703.6 1104.7,-1673.8 0,0 461.92,-365.1 -567.25,-567.2 -1029.17,-202.1 -1281.15,197 -1281.15,-1328.2 0,-1525.1 1144.52,-145.8 998.04,-1261.2 -146.47,-1115.5 -2930.42,-880 -3772.65,-880 -842.24,0 -2591.87,1296.1 -2591.87,3936.1 0,2640 5443.28,2441.2 6110.18,1774.3 z" /><g
         transform="scale(1.58054)"
         id="g170"><path
           id="path172"
           style="fill:none;stroke:#231f20;stroke-width:332.66699219;stroke-linecap:butt;stroke-linejoin:miter;stroke-miterlimit:4;stroke-dasharray:none;stroke-opacity:1"
           d="M 5303.35,16067.5 C 4142.31,16300 3274.07,14958.8 2856.23,13682 2401.71,12293.3 1499.19,9434.31 1325.95,8115.58 1159.86,6851.52 2157.4,5726.9 3427.63,5617.38 c 763.51,-65.8 1951.12,72.89 1939.78,784.67 -2.28,141.98 -313.6,134.77 -434.44,282.88 -412.58,505.78 -241.41,901.09 71.69,1210.54 214.48,211.95 601.42,-157.35 929.51,54.47 376.2,242.89 -879.96,733.74 -742.34,1367.32 319.45,1050.74 840.15,2219.94 970.15,3675.44 128.36,1437.2 203.06,2862.3 -858.63,3074.8 z" /></g><path
         id="path174"
         style="fill:none;stroke:#100f0d;stroke-width:500;stroke-linecap:butt;stroke-linejoin:miter;stroke-miterlimit:4;stroke-dasharray:none;stroke-opacity:1"
         d="m 8205.9,14726.3 c 0,0 -3322.28,1349.9 -5869.79,-603.7" /><path
         id="path176"
         style="fill:none;stroke:#100f0d;stroke-width:500;stroke-linecap:butt;stroke-linejoin:miter;stroke-miterlimit:4;stroke-dasharray:none;stroke-opacity:1"
         d="m 8483.4,10118.7 c 0,0 -1784.93,12.8 -3899.38,-1069.1" /><path
         id="path178"
         style="fill:none;stroke:#100f0d;stroke-width:500;stroke-linecap:butt;stroke-linejoin:miter;stroke-miterlimit:4;stroke-dasharray:none;stroke-opacity:1"
         d="m 7404.67,11197.4 c 0,0 -2237.74,-109.1 -4352.18,-1190.9" /><path
         id="path180"
         style="fill:none;stroke:#100f0d;stroke-width:500;stroke-linecap:butt;stroke-linejoin:miter;stroke-miterlimit:4;stroke-dasharray:none;stroke-opacity:1"
         d="m 7750.49,12306.3 c 0,0 -3280.13,74.4 -5394.57,-1007.5" /><path
         id="path182"
         style="fill:none;stroke:#100f0d;stroke-width:500;stroke-linecap:butt;stroke-linejoin:miter;stroke-miterlimit:4;stroke-dasharray:none;stroke-opacity:1"
         d="m 5836.81,15149.9 c 0,0 -1558.02,-2876 1517.28,-5951.3" /><path
         id="path184"
         style="fill:none;stroke:#100f0d;stroke-width:500;stroke-linecap:butt;stroke-linejoin:miter;stroke-miterlimit:4;stroke-dasharray:none;stroke-opacity:1"
         d="m 3499.15,14809.3 c 0,0 -1558.02,-2876 1517.29,-5951.3" /><g
         transform="scale(2.79065)"
         id="g186"><path
           id="path188"
           style="fill:#bdbcbc;fill-opacity:1;fill-rule:nonzero;stroke:none"
           d="M 9423.78,13462.5 C 8864.87,15112.4 7303.48,16300 5464.7,16300 3625.96,16300 2064.56,15112.4 1505.64,13462.5 690.415,13256.6 87.0638,12518.4 87.0638,11639.2 c 0,-1038.6 841.9622,-1880.63 1880.5862,-1880.63 16.35,0 32.67,0.22 48.92,0.65 753.13,-1097.49 2016.57,-1817.35 3448.13,-1817.35 1431.6,0 2695.03,719.86 3448.16,1817.35 16.26,-0.43 32.57,-0.65 48.95,-0.65 1038.59,0 1880.59,842.03 1880.59,1880.63 0,879.2 -603.4,1617.4 -1418.62,1823.3" /></g><g
         transform="scale(2.79065)"
         id="g190"><path
           id="path192"
           style="fill:none;stroke:#231f20;stroke-width:174.12800598;stroke-linecap:butt;stroke-linejoin:miter;stroke-miterlimit:4;stroke-dasharray:none;stroke-opacity:1"
           d="M 9423.78,13462.5 C 8864.87,15112.4 7303.48,16300 5464.7,16300 3625.96,16300 2064.56,15112.4 1505.64,13462.5 690.415,13256.6 87.0638,12518.4 87.0638,11639.2 c 0,-1038.6 841.9622,-1880.63 1880.5862,-1880.63 16.35,0 32.67,0.22 48.92,0.65 753.13,-1097.49 2016.57,-1817.35 3448.13,-1817.35 1431.6,0 2695.03,719.86 3448.16,1817.35 16.26,-0.43 32.57,-0.65 48.95,-0.65 1038.59,0 1880.59,842.03 1880.59,1880.63 0,879.2 -603.4,1617.4 -1418.62,1823.3 z" /></g><g
         id="g194"><g
           clip-path="url(#clipPath200)"
           id="g196"><g
             transform="scale(2.30972)"
             id="g202"><path
               id="path212"
               style="fill:url(#linearGradient210);fill-opacity:1;fill-rule:nonzero;stroke:none"
               d="m 10630.1,11824.9 -8191.63,0.7 -617.31,4474.4 h 9566.34 l -757.4,-4475.1" /></g></g></g><g
         transform="scale(1.75034)"
         id="g214"><path
           id="path216"
           style="fill:none;stroke:#bdbcbc;stroke-width:300.39599609;stroke-linecap:butt;stroke-linejoin:miter;stroke-miterlimit:4;stroke-dasharray:none;stroke-opacity:1"
           d="M 3113.31,16300 H 14150.5" /></g><g
         transform="scale(1.54315)"
         id="g218"><path
           id="path220"
           style="fill:none;stroke:#231f20;stroke-width:340.72799683;stroke-linecap:butt;stroke-linejoin:miter;stroke-miterlimit:4;stroke-dasharray:none;stroke-opacity:1"
           d="m 7504.92,16300 504.49,-544.3 h 3866.99 l 516.4,544.3" /></g><g
         transform="scale(2.43863)"
         id="g222"><path
           id="path224"
           style="fill:none;stroke:#100f0d;stroke-width:215.61000061;stroke-linecap:butt;stroke-linejoin:miter;stroke-miterlimit:4;stroke-dasharray:none;stroke-opacity:1"
           d="M 2133.44,16300 H 10373.7" /></g><g
         transform="scale(2.30486)"
         id="g226"><path
           id="path228"
           style="fill:none;stroke:#231f20;stroke-width:202.01800537;stroke-linecap:butt;stroke-linejoin:miter;stroke-miterlimit:4;stroke-dasharray:none;stroke-opacity:1"
           d="m 10650.8,11815.4 -8208.94,0.8 -618.61,4483.8 h 9586.55 z" /></g><g
         transform="scale(2.18798)"
         id="g230"><path
           id="path232"
           style="fill:none;stroke:#231f20;stroke-width:212.80900574;stroke-linecap:butt;stroke-linejoin:miter;stroke-miterlimit:4;stroke-dasharray:none;stroke-opacity:1"
           d="M 602.551,16300 1262.3,12796" /></g><g
         transform="scale(2.18798)"
         id="g234"><path
           id="path236"
           style="fill:none;stroke:#231f20;stroke-width:212.80900574;stroke-linecap:butt;stroke-linejoin:miter;stroke-miterlimit:4;stroke-dasharray:none;stroke-opacity:1"
           d="m 13314.1,16300 -659.7,-3504" /></g><g
         transform="scale(2.94973)"
         id="g238"><path
           id="path240"
           style="fill:#656263;fill-opacity:1;fill-rule:nonzero;stroke:none"
           d="m 16300,723.727 -193.7,2017.643 -2427,450.31 L 13433,742.645 c -0.3,-3.018 -0.6,-6.068 -0.9,-9.086 l -0.9,-9.832 h 0.3 c -0.2,-4.405 -0.3,-8.814 -0.3,-13.221 0,-343.184 642.2,-621.3784 1434.4,-621.3784 792.2,0 1434.4,278.1944 1434.4,621.3784 0,4.407 -0.1,8.816 -0.3,13.221 h 0.3" /></g><g
         transform="scale(2.94973)"
         id="g242"><path
           id="path244"
           style="fill:none;stroke:#231f20;stroke-width:178.2519989;stroke-linecap:butt;stroke-linejoin:miter;stroke-miterlimit:4;stroke-dasharray:none;stroke-opacity:1"
           d="m 16300,723.727 -193.7,2017.643 -2427,450.31 L 13433,742.645 c -0.3,-3.018 -0.6,-6.068 -0.9,-9.086 l -0.9,-9.832 h 0.3 c -0.2,-4.405 -0.3,-8.814 -0.3,-13.221 0,-343.184 642.2,-621.3784 1434.4,-621.3784 792.2,0 1434.4,278.1944 1434.4,621.3784 0,4.407 -0.1,8.816 -0.3,13.221 z" /></g><g
         transform="scale(3.54687)"
         id="g246"><path
           id="path248"
           style="fill:#656263;fill-opacity:1;fill-rule:nonzero;stroke:none"
           d="m 13914.1,601.884 161.1,1677.956 2018.4,374.5 204.8,-2036.724 c 0.3,-2.51 0.6,-5.046 0.8,-7.556 l 0.8,-8.176 h -0.3 c 0.2,-3.664 0.3,-7.331 0.3,-10.996 0,-285.407 -534.1,-516.7655 -1192.9,-516.7655 -658.9,0 -1193,231.3585 -1193,516.7655 0,3.665 0.1,7.332 0.3,10.996 h -0.3" /></g><g
         transform="scale(3.54687)"
         id="g250"><path
           id="path252"
           style="fill:none;stroke:#231f20;stroke-width:148.24200439;stroke-linecap:butt;stroke-linejoin:miter;stroke-miterlimit:4;stroke-dasharray:none;stroke-opacity:1"
           d="m 13914.1,601.884 161.1,1677.956 2018.4,374.5 204.8,-2036.724 c 0.3,-2.51 0.6,-5.046 0.8,-7.556 l 0.8,-8.176 h -0.3 c 0.2,-3.664 0.3,-7.331 0.3,-10.996 0,-285.407 -534.1,-516.7655 -1192.9,-516.7655 -658.9,0 -1193,231.3585 -1193,516.7655 0,3.665 0.1,7.332 0.3,10.996 z" /></g><g
         transform="scale(3.58709)"
         id="g254"><path
           id="path256"
           style="fill:#656263;fill-opacity:1;fill-rule:nonzero;stroke:none"
           d="m 16300,4617.14 c 0,-1652.37 -1213.9,-2991.9 -2711.4,-2991.9 -1497.5,0 -2711.4,1339.53 -2711.4,2991.9 0,1652.4 1213.9,2991.92 2711.4,2991.92 1497.5,0 2711.4,-1339.52 2711.4,-2991.92" /></g><g
         transform="scale(3.58709)"
         id="g258"><path
           id="path260"
           style="fill:none;stroke:#231f20;stroke-width:129.80499268;stroke-linecap:butt;stroke-linejoin:miter;stroke-miterlimit:4;stroke-dasharray:none;stroke-opacity:1"
           d="m 16300,4617.14 c 0,-1652.37 -1213.9,-2991.9 -2711.4,-2991.9 -1497.5,0 -2711.4,1339.53 -2711.4,2991.9 0,1652.4 1213.9,2991.92 2711.4,2991.92 1497.5,0 2711.4,-1339.52 2711.4,-2991.92 z" /></g><g
         transform="scale(3.03914)"
         id="g262"><path
           id="path264"
           style="fill:#e7c349;fill-opacity:1;fill-rule:nonzero;stroke:none"
           d="m 16300,4615.65 h -446.3 V 7335.86 H 16300 V 4615.65" /></g><g
         transform="scale(3.0233)"
         id="g266"><path
           id="path268"
           style="fill:none;stroke:#100f0d;stroke-width:165.38200378;stroke-linecap:butt;stroke-linejoin:miter;stroke-miterlimit:4;stroke-dasharray:none;stroke-opacity:1"
           d="M 16022.2,7195.12 H 16300" /></g><g
         transform="scale(3.0233)"
         id="g270"><path
           id="path272"
           style="fill:none;stroke:#100f0d;stroke-width:165.38200378;stroke-linecap:butt;stroke-linejoin:miter;stroke-miterlimit:4;stroke-dasharray:none;stroke-opacity:1"
           d="M 16022.2,6979.13 H 16300" /></g><g
         transform="scale(3.0233)"
         id="g274"><path
           id="path276"
           style="fill:none;stroke:#100f0d;stroke-width:165.38200378;stroke-linecap:butt;stroke-linejoin:miter;stroke-miterlimit:4;stroke-dasharray:none;stroke-opacity:1"
           d="M 16022.2,6763.11 H 16300" /></g><g
         transform="scale(3.0233)"
         id="g278"><path
           id="path280"
           style="fill:none;stroke:#100f0d;stroke-width:165.38200378;stroke-linecap:butt;stroke-linejoin:miter;stroke-miterlimit:4;stroke-dasharray:none;stroke-opacity:1"
           d="M 16022.2,6547.08 H 16300" /></g><g
         transform="scale(3.0233)"
         id="g282"><path
           id="path284"
           style="fill:none;stroke:#100f0d;stroke-width:165.38200378;stroke-linecap:butt;stroke-linejoin:miter;stroke-miterlimit:4;stroke-dasharray:none;stroke-opacity:1"
           d="M 16022.2,6331.09 H 16300" /></g><g
         transform="scale(3.0233)"
         id="g286"><path
           id="path288"
           style="fill:none;stroke:#100f0d;stroke-width:165.38200378;stroke-linecap:butt;stroke-linejoin:miter;stroke-miterlimit:4;stroke-dasharray:none;stroke-opacity:1"
           d="M 16022.2,6115.07 H 16300" /></g><g
         transform="scale(3.0233)"
         id="g290"><path
           id="path292"
           style="fill:none;stroke:#100f0d;stroke-width:165.38200378;stroke-linecap:butt;stroke-linejoin:miter;stroke-miterlimit:4;stroke-dasharray:none;stroke-opacity:1"
           d="M 16022.2,5899.05 H 16300" /></g><g
         transform="scale(3.0233)"
         id="g294"><path
           id="path296"
           style="fill:none;stroke:#100f0d;stroke-width:165.38200378;stroke-linecap:butt;stroke-linejoin:miter;stroke-miterlimit:4;stroke-dasharray:none;stroke-opacity:1"
           d="M 16022.2,5683.06 H 16300" /></g><g
         transform="scale(3.0233)"
         id="g298"><path
           id="path300"
           style="fill:none;stroke:#100f0d;stroke-width:165.38200378;stroke-linecap:butt;stroke-linejoin:miter;stroke-miterlimit:4;stroke-dasharray:none;stroke-opacity:1"
           d="M 16022.2,5467.04 H 16300" /></g><g
         transform="scale(3.0233)"
         id="g302"><path
           id="path304"
           style="fill:none;stroke:#100f0d;stroke-width:165.38200378;stroke-linecap:butt;stroke-linejoin:miter;stroke-miterlimit:4;stroke-dasharray:none;stroke-opacity:1"
           d="M 16022.2,5251.02 H 16300" /></g><g
         transform="scale(3.0233)"
         id="g306"><path
           id="path308"
           style="fill:none;stroke:#100f0d;stroke-width:165.38200378;stroke-linecap:butt;stroke-linejoin:miter;stroke-miterlimit:4;stroke-dasharray:none;stroke-opacity:1"
           d="M 16022.2,5035.03 H 16300" /></g><g
         transform="scale(3.0233)"
         id="g310"><path
           id="path312"
           style="fill:none;stroke:#100f0d;stroke-width:165.38200378;stroke-linecap:butt;stroke-linejoin:miter;stroke-miterlimit:4;stroke-dasharray:none;stroke-opacity:1"
           d="M 16022.2,4819.01 H 16300" /></g><g
         transform="scale(2.88817)"
         id="g314"><path
           id="path316"
           style="fill:#e7c349;fill-opacity:1;fill-rule:nonzero;stroke:none"
           d="m 15288,3542.9 -332.1,332.08 1012.1,1011.99 332,-332.08 -1012,-1011.99" /></g><g
         transform="scale(2.72007)"
         id="g318"><path
           id="path320"
           style="fill:none;stroke:#100f0d;stroke-width:183.81900024;stroke-linecap:butt;stroke-linejoin:miter;stroke-miterlimit:4;stroke-dasharray:none;stroke-opacity:1"
           d="M 16084.3,4181.65 16300,3965.89" /></g><g
         transform="scale(2.74688)"
         id="g322"><path
           id="path324"
           style="fill:none;stroke:#100f0d;stroke-width:182.02400208;stroke-linecap:butt;stroke-linejoin:miter;stroke-miterlimit:4;stroke-dasharray:none;stroke-opacity:1"
           d="M 16086.4,4299.93 16300,4086.27" /></g><g
         transform="scale(2.77369)"
         id="g326"><path
           id="path328"
           style="fill:none;stroke:#100f0d;stroke-width:180.26499939;stroke-linecap:butt;stroke-linejoin:miter;stroke-miterlimit:4;stroke-dasharray:none;stroke-opacity:1"
           d="m 16088.4,4415.92 211.6,-211.6" /></g><g
         transform="scale(2.8005)"
         id="g330"><path
           id="path332"
           style="fill:none;stroke:#100f0d;stroke-width:178.53900146;stroke-linecap:butt;stroke-linejoin:miter;stroke-miterlimit:4;stroke-dasharray:none;stroke-opacity:1"
           d="M 16090.5,4529.69 16300,4320.12" /></g><g
         transform="scale(2.82731)"
         id="g334"><path
           id="path336"
           style="fill:none;stroke:#100f0d;stroke-width:176.84599304;stroke-linecap:butt;stroke-linejoin:miter;stroke-miterlimit:4;stroke-dasharray:none;stroke-opacity:1"
           d="M 16092.5,4641.3 16300,4433.72" /></g><g
         transform="scale(2.85412)"
         id="g338"><path
           id="path340"
           style="fill:none;stroke:#100f0d;stroke-width:175.18499756;stroke-linecap:butt;stroke-linejoin:miter;stroke-miterlimit:4;stroke-dasharray:none;stroke-opacity:1"
           d="M 16094.4,4750.81 16300,4545.18" /></g><g
         transform="scale(3.34505)"
         id="g342"><path
           id="path344"
           style="fill:#e7c349;fill-opacity:1;fill-rule:nonzero;stroke:none"
           d="m 16300,3345.72 -286.7,-286.72 -873.8,873.77 286.7,286.72 873.8,-873.77" /></g><g
         transform="scale(3.31099)"
         id="g346"><path
           id="path348"
           style="fill:none;stroke:#100f0d;stroke-width:151.01199341;stroke-linecap:butt;stroke-linejoin:miter;stroke-miterlimit:4;stroke-dasharray:none;stroke-opacity:1"
           d="m 16122.8,3258.09 177.2,177.25" /></g><g
         transform="scale(3.28418)"
         id="g350"><path
           id="path352"
           style="fill:none;stroke:#100f0d;stroke-width:152.24499512;stroke-linecap:butt;stroke-linejoin:miter;stroke-miterlimit:4;stroke-dasharray:none;stroke-opacity:1"
           d="m 16121.3,3417.74 178.7,178.71" /></g><g
         transform="scale(3.25737)"
         id="g354"><path
           id="path356"
           style="fill:none;stroke:#100f0d;stroke-width:153.4980011;stroke-linecap:butt;stroke-linejoin:miter;stroke-miterlimit:4;stroke-dasharray:none;stroke-opacity:1"
           d="m 16119.9,3580.03 180.1,180.18" /></g><g
         transform="scale(3.23056)"
         id="g358"><path
           id="path360"
           style="fill:none;stroke:#100f0d;stroke-width:154.77200317;stroke-linecap:butt;stroke-linejoin:miter;stroke-miterlimit:4;stroke-dasharray:none;stroke-opacity:1"
           d="m 16118.4,3745.01 181.6,181.67" /></g><g
         transform="scale(3.20375)"
         id="g362"><path
           id="path364"
           style="fill:none;stroke:#100f0d;stroke-width:156.06700134;stroke-linecap:butt;stroke-linejoin:miter;stroke-miterlimit:4;stroke-dasharray:none;stroke-opacity:1"
           d="m 16116.8,3912.75 183.2,183.19" /></g><g
         transform="scale(3.17695)"
         id="g366"><path
           id="path368"
           style="fill:none;stroke:#100f0d;stroke-width:157.38400269;stroke-linecap:butt;stroke-linejoin:miter;stroke-miterlimit:4;stroke-dasharray:none;stroke-opacity:1"
           d="m 16115.3,4083.32 184.7,184.74" /></g><g
         transform="scale(3.81351)"
         id="g370"><path
           id="path372"
           style="fill:#656263;fill-opacity:1;fill-rule:nonzero;stroke:none"
           d="m 14582.7,6659.69 c 481.2,96.35 841,-459.52 1014.2,-988.69 188.4,-575.59 562.4,-1760.51 634.2,-2307.06 68.9,-523.9 -344.6,-990.01 -871,-1035.4 -316.4,-27.27 -808.7,30.23 -804,325.21 1,58.84 130,55.85 180.1,117.24 171,209.62 100.1,373.46 -29.7,501.72 -88.9,87.84 -249.3,-65.22 -385.3,22.58 -155.9,100.66 364.7,304.1 307.7,566.69 -132.4,435.51 -348.2,920.07 -402.1,1523.32 -53.2,595.65 -84.2,1186.29 355.9,1274.39" /></g><g
         transform="scale(3.79742)"
         id="g374"><path
           id="path376"
           style="fill:#e7c349;fill-opacity:1;fill-rule:nonzero;stroke:none"
           d="m 14691,3877.98 c 0,0 -35.4,-185.29 -290.9,-440.78 0,0 -121.7,-96.14 149.3,-149.36 271.1,-53.22 337.4,51.88 337.4,-349.76 0,-401.62 -301.4,-38.4 -262.8,-332.12 38.6,-293.76 771.7,-231.74 993.5,-231.74 221.8,0 682.5,341.31 682.5,1036.52 0,695.21 -1433.4,642.86 -1609,467.24" /></g><g
         transform="scale(3.81353)"
         id="g378"><path
           id="path380"
           style="fill:none;stroke:#231f20;stroke-width:137.87600708;stroke-linecap:butt;stroke-linejoin:miter;stroke-miterlimit:4;stroke-dasharray:none;stroke-opacity:1"
           d="m 14582.7,6659.29 c 481.2,96.35 841.1,-459.52 1014.2,-988.69 188.4,-575.58 562.4,-1760.49 634.2,-2307.05 68.9,-523.9 -344.5,-990 -871,-1035.39 -316.4,-27.27 -808.7,30.21 -803.9,325.21 0.9,58.84 129.9,55.85 180,117.24 171,209.62 100.1,373.46 -29.7,501.71 -88.9,87.85 -249.3,-65.21 -385.2,22.58 -156,100.67 364.7,304.1 307.6,566.7 -132.4,435.5 -348.2,920.06 -402.1,1523.31 -53.2,595.64 -84.1,1186.28 355.9,1274.38 z" /></g><g
         transform="scale(3.78267)"
         id="g382"><path
           id="path384"
           style="fill:none;stroke:#100f0d;stroke-width:132.18200684;stroke-linecap:butt;stroke-linejoin:miter;stroke-miterlimit:4;stroke-dasharray:none;stroke-opacity:1"
           d="m 14748.2,3893.09 c 0,0 878.3,356.87 1551.8,-159.59" /></g><g
         transform="scale(3.64476)"
         id="g386"><path
           id="path388"
           style="fill:none;stroke:#100f0d;stroke-width:137.18299866;stroke-linecap:butt;stroke-linejoin:miter;stroke-miterlimit:4;stroke-dasharray:none;stroke-opacity:1"
           d="m 15230.2,2776.23 c 0,0 489.7,3.51 1069.8,-293.32" /></g><g
         transform="scale(3.73872)"
         id="g390"><path
           id="path392"
           style="fill:none;stroke:#100f0d;stroke-width:133.73500061;stroke-linecap:butt;stroke-linejoin:miter;stroke-miterlimit:4;stroke-dasharray:none;stroke-opacity:1"
           d="m 15135.9,2994.98 c 0,0 598.5,-29.18 1164.1,-318.53" /></g><g
         transform="scale(3.78145)"
         id="g394"><path
           id="path396"
           style="fill:none;stroke:#100f0d;stroke-width:132.22399902;stroke-linecap:butt;stroke-linejoin:miter;stroke-miterlimit:4;stroke-dasharray:none;stroke-opacity:1"
           d="m 14873.4,3254.38 c 0,0 867.5,19.68 1426.6,-266.43" /></g><g
         transform="scale(3.66349)"
         id="g398"><path
           id="path400"
           style="fill:none;stroke:#100f0d;stroke-width:136.48199463;stroke-linecap:butt;stroke-linejoin:miter;stroke-miterlimit:4;stroke-dasharray:none;stroke-opacity:1"
           d="m 15874.7,4135.37 c 0,0 425.3,-785.04 -414.1,-1624.49" /></g><g
         transform="scale(3.8069)"
         id="g402"><path
           id="path404"
           style="fill:none;stroke:#100f0d;stroke-width:131.33999634;stroke-linecap:butt;stroke-linejoin:miter;stroke-miterlimit:4;stroke-dasharray:none;stroke-opacity:1"
           d="m 15890.7,3890.12 c 0,0 409.3,-755.47 -398.5,-1563.29" /></g><g
         transform="scale(2.67202)"
         id="g406"><path
           id="path408"
           style="fill:#656263;fill-opacity:1;fill-rule:nonzero;stroke:none"
           d="m 15672,9504.72 c -686.8,137.5 -1200.4,-655.83 -1447.5,-1411.06 -268.9,-821.48 -802.7,-2512.6 -905.2,-3292.64 -98.2,-747.72 491.8,-1412.94 1243.2,-1477.73 451.6,-38.92 1154.1,43.15 1147.4,464.15 -1.4,83.98 -185.5,79.71 -257,167.32 -244,299.18 -142.8,533.01 42.4,716.05 126.9,125.38 355.8,-93.07 549.8,32.23 222.6,143.67 -520.5,434.01 -439.1,808.79 189,621.55 497,1313.12 573.9,2174.08 75.9,850.11 120.1,1693.07 -507.9,1818.81" /></g><g
         transform="scale(2.65435)"
         id="g410"><path
           id="path412"
           style="fill:#e7c349;fill-opacity:1;fill-rule:nonzero;stroke:none"
           d="m 15709.8,5547.99 c 0,0 50.7,-265.08 416.2,-630.59 0,0 174,-137.55 -213.7,-213.69 -387.7,-76.13 -482.7,74.22 -482.7,-500.38 0,-574.57 431.2,-54.93 376,-475.15 -55.1,-420.25 -1104,-331.53 -1421.3,-331.53 -317.3,0 -976.5,488.29 -976.5,1482.89 0,994.59 2050.8,919.7 2302,668.45" /></g><g
         transform="scale(2.672)"
         id="g414"><path
           id="path416"
           style="fill:none;stroke:#231f20;stroke-width:196.77900696;stroke-linecap:butt;stroke-linejoin:miter;stroke-miterlimit:4;stroke-dasharray:none;stroke-opacity:1"
           d="m 15672,9504.27 c -686.8,137.5 -1200.4,-655.84 -1447.5,-1411.08 -268.9,-821.48 -802.8,-2512.61 -905.2,-3292.67 -98.3,-747.71 491.8,-1412.94 1243.2,-1477.73 451.6,-38.92 1154.1,43.12 1147.4,464.15 -1.4,83.98 -185.5,79.72 -257,167.33 -244.1,299.17 -142.8,533.01 42.4,716.05 126.9,125.38 355.7,-93.07 549.8,32.23 222.6,143.67 -520.5,434.02 -439.1,808.79 189,621.56 497,1313.14 573.9,2174.1 75.9,850.11 120.1,1693.08 -507.9,1818.83 z" /></g><g
         transform="scale(2.55824)"
         id="g418"><path
           id="path420"
           style="fill:none;stroke:#100f0d;stroke-width:195.44700623;stroke-linecap:butt;stroke-linejoin:miter;stroke-miterlimit:4;stroke-dasharray:none;stroke-opacity:1"
           d="m 16300,5756.42 c 0,0 -1298.7,527.67 -2294.5,-235.98" /></g><g
         transform="scale(2.57526)"
         id="g422"><path
           id="path424"
           style="fill:none;stroke:#100f0d;stroke-width:194.15499878;stroke-linecap:butt;stroke-linejoin:miter;stroke-miterlimit:4;stroke-dasharray:none;stroke-opacity:1"
           d="m 16300,3929.19 c 0,0 -693.1,4.97 -1514.2,-415.14" /></g><g
         transform="scale(2.50909)"
         id="g426"><path
           id="path428"
           style="fill:none;stroke:#100f0d;stroke-width:199.27600098;stroke-linecap:butt;stroke-linejoin:miter;stroke-miterlimit:4;stroke-dasharray:none;stroke-opacity:1"
           d="m 16300,4462.74 c 0,0 -891.9,-43.48 -1734.6,-474.63" /></g><g
         transform="scale(2.5303)"
         id="g430"><path
           id="path432"
           style="fill:none;stroke:#100f0d;stroke-width:197.60499573;stroke-linecap:butt;stroke-linejoin:miter;stroke-miterlimit:4;stroke-dasharray:none;stroke-opacity:1"
           d="m 16300,4863.57 c 0,0 -1296.3,29.41 -2132,-398.17" /></g><g
         transform="scale(2.50598)"
         id="g434"><path
           id="path436"
           style="fill:none;stroke:#100f0d;stroke-width:199.522995;stroke-linecap:butt;stroke-linejoin:miter;stroke-miterlimit:4;stroke-dasharray:none;stroke-opacity:1"
           d="m 15694.5,6045.5 c 0,0 -621.7,-1147.66 605.5,-2374.84" /></g><g
         transform="scale(2.36256)"
         id="g438"><path
           id="path440"
           style="fill:none;stroke:#100f0d;stroke-width:211.63400269;stroke-linecap:butt;stroke-linejoin:miter;stroke-miterlimit:4;stroke-dasharray:none;stroke-opacity:1"
           d="m 15657.8,6268.32 c 0,0 -659.5,-1217.33 642.2,-2519" /></g><g
         transform="scale(3.91109)"
         id="g442"><path
           id="path444"
           style="fill:#656263;fill-opacity:1;fill-rule:nonzero;stroke:none"
           d="m 15287.8,9605.82 c -398.8,1177.28 -1512.9,2024.58 -2824.9,2024.58 -1312,0 -2426.1,-847.3 -2824.89,-2024.58 -581.68,-146.94 -1012.17,-673.67 -1012.17,-1300.99 0,-741.07 600.75,-1341.85 1341.83,-1341.85 11.68,0 23.32,0.15 34.93,0.46 537.4,-783.08 1438.9,-1296.73 2460.3,-1296.73 1021.5,0 1923,513.65 2460.3,1296.73 11.7,-0.31 23.3,-0.46 35,-0.46 741,0 1341.8,600.78 1341.8,1341.85 0,627.32 -430.5,1154.05 -1012.2,1300.99" /></g><g
         transform="scale(3.91109)"
         id="g446"><path
           id="path448"
           style="fill:none;stroke:#231f20;stroke-width:119.05200195;stroke-linecap:butt;stroke-linejoin:miter;stroke-miterlimit:4;stroke-dasharray:none;stroke-opacity:1"
           d="m 15287.8,9605.82 c -398.8,1177.28 -1512.9,2024.58 -2824.9,2024.58 -1312,0 -2426.1,-847.3 -2824.89,-2024.58 -581.68,-146.94 -1012.17,-673.67 -1012.17,-1300.99 0,-741.07 600.75,-1341.85 1341.83,-1341.85 11.68,0 23.32,0.15 34.93,0.46 537.4,-783.08 1438.9,-1296.73 2460.3,-1296.73 1021.5,0 1923,513.65 2460.3,1296.73 11.7,-0.31 23.3,-0.46 35,-0.46 741,0 1341.8,600.78 1341.8,1341.85 0,627.32 -430.5,1154.05 -1012.2,1300.99 z" /></g><g
         transform="scale(3.90605)"
         id="g450"><path
           id="path452"
           style="fill:none;stroke:#231f20;stroke-width:124.40499878;stroke-linecap:butt;stroke-linejoin:miter;stroke-miterlimit:4;stroke-dasharray:none;stroke-opacity:1"
           d="m 15286.5,9633.56 c -399.3,1178.84 -1514.9,2027.24 -2828.5,2027.24 -1313.7,0 -2429.2,-848.4 -2828.58,-2027.24 -582.43,-147.13 -1013.5,-674.53 -1013.5,-1302.66 0,-742.03 601.55,-1343.58 1343.58,-1343.58 11.7,0 23.35,0.15 34.95,0.46 538.05,-784.09 1440.75,-1298.42 2463.55,-1298.42 1022.8,0 1925.4,514.33 2463.5,1298.42 11.6,-0.31 23.2,-0.46 34.9,-0.46 742.1,0 1343.6,601.55 1343.6,1343.58 0,628.13 -431.1,1155.53 -1013.5,1302.66 z" /></g><g
         transform="scale(2.69475)"
         id="g454"><path
           id="path456"
           style="fill:#ed0e7a;fill-opacity:1;fill-rule:nonzero;stroke:none"
           d="m 16300,10129 h -1764.3 l -127.6,1522 H 16300 v -1522" /></g><g
         transform="scale(2.70396)"
         id="g458"><path
           id="path460"
           style="fill:#f68716;fill-opacity:1;fill-rule:nonzero;stroke:none"
           d="M 16300,11612.2 H 14282 L 14128.1,13210 H 16300 v -1597.8" /></g><g
         transform="scale(2.69475)"
         id="g462"><path
           id="path464"
           style="fill:#f3ef15;fill-opacity:1;fill-rule:nonzero;stroke:none"
           d="m 16300,13259.5 -2189.3,-3.5 c 0,0 -286.9,797.7 297.4,1654.7 0.4,0.6 1891.9,0 1891.9,0 v -1651.2" /></g><g
         transform="scale(2.72707)"
         id="g466"><path
           id="path468"
           style="fill:#42ba3d;fill-opacity:1;fill-rule:nonzero;stroke:none"
           d="m 16106.9,14734.7 h -1869.5 c 0,0 1292.7,1565.3 1869.5,1532.5 43.3,-2.5 0,-1532.5 0,-1532.5" /></g><g
         transform="scale(3.59512)"
         id="g470"><path
           id="path472"
           style="fill:#ed0e7a;fill-opacity:1;fill-rule:nonzero;stroke:none"
           d="m 14881.9,7592.27 h 1322.4 l 95.7,1140.86 H 14881.9 V 7592.27" /></g><g
         transform="scale(3.63342)"
         id="g474"><path
           id="path476"
           style="fill:#f68716;fill-opacity:1;fill-rule:nonzero;stroke:none"
           d="m 14683.7,8641.7 h 1501.8 L 16300,9830.75 H 14683.7 V 8641.7" /></g><g
         transform="scale(3.69171)"
         id="g478"><path
           id="path480"
           style="fill:#f3ef15;fill-opacity:1;fill-rule:nonzero;stroke:none"
           d="m 14492.5,9678.76 1598,-2.57 c 0,0 209.5,582.21 -217,1207.81 -0.3,0.5 -1381,0 -1381,0 V 9678.76" /></g><g
         transform="scale(3.59512)"
         id="g482"><path
           id="path484"
           style="fill:#42ba3d;fill-opacity:1;fill-rule:nonzero;stroke:none"
           d="M 14881.9,11177 H 16300 c 0,0 -980.6,1187.3 -1418.1,1162.4 -32.9,-1.8 0,-1162.4 0,-1162.4" /></g><g
         transform="scale(2.7351)"
         id="g486"><path
           id="path488"
           style="fill:none;stroke:#100f0d;stroke-width:170.24000549;stroke-linecap:butt;stroke-linejoin:miter;stroke-miterlimit:4;stroke-dasharray:none;stroke-opacity:1"
           d="m 16090.1,9930.63 -1762.3,0.18 -521.3,3875.39 c 0,0 466.9,1650.8 2283.6,2493.8 z" /></g><g
         transform="scale(3.65736)"
         id="g490"><path
           id="path492"
           style="fill:none;stroke:#100f0d;stroke-width:127.31099701;stroke-linecap:butt;stroke-linejoin:miter;stroke-miterlimit:4;stroke-dasharray:none;stroke-opacity:1"
           d="m 14592.2,7426.47 1318,0.14 389.8,2898.19 c 0,0 -349.2,1234.5 -1707.8,1864.9 z" /></g><g
         transform="scale(3.5765)"
         id="g494"><path
           id="path496"
           style="fill:#e7c349;fill-opacity:1;fill-rule:nonzero;stroke:none"
           d="m 10944.8,7592.09 c 584.9,-832.46 1566,-1378.5 2677.6,-1378.5 1111.6,0 2092.7,546.04 2677.6,1378.5 h -5355.2" /></g><g
         transform="scale(3.5765)"
         id="g498"><path
           id="path500"
           style="fill:none;stroke:#100f0d;stroke-width:134.21000671;stroke-linecap:butt;stroke-linejoin:miter;stroke-miterlimit:4;stroke-dasharray:none;stroke-opacity:1"
           d="m 10944.8,7592.09 c 584.9,-832.46 1566,-1378.5 2677.6,-1378.5 1111.6,0 2092.7,546.04 2677.6,1378.5 z" /></g></g></g></svg>